# xmcd
#
# Track frame offsets:
#	150
#	22975
#	41020
#	52705
#	67967
#	80467
#	97626
#	113612
#	130079
#	147029
#	163607
#	183789
#	199228
#	214498
#	230968
#	250095
#	265350
#	283018
#	297907
#	315505
#
# Disc length: 4439 seconds
#
# Revision: 1
# Processed by: cddbd v1.5.1PL2 Copyright (c) Steve Scherf et al.
# Submitted via: audiograbber 1.80
#
DISCID=16115514
DTITLE=Varios - Especial Sertanejo 53 2006
DYEAR=1900
DGENRE=
TTITLE0=Arrasta uma cadeira
TTITLE1=E pra sempre te amar
TTITLE2=Cai na real
TTITLE3=Cuida do nosso amor
TTITLE4=Quantas lembracas
TTITLE5=Doidinho por voce
TTITLE6=O fora
TTITLE7=Nada mudou
TTITLE8=Toneladas de paixao
TTITLE9=Instinto animal
TTITLE10=Amor e paixao
TTITLE11=Esqueca que te amo
TTITLE12=To mal
TTITLE13=Apaixonado por voce
TTITLE14=Homem carente
TTITLE15=Faz mais faz
TTITLE16=Nao tem dia nao tem hora
TTITLE17=Sera que ela vem
TTITLE18=Tatuagem
TTITLE19=Hey Jude
EXTD=
EXTT0=
EXTT1=
EXTT2=
EXTT3=
EXTT4=
EXTT5=
EXTT6=
EXTT7=
EXTT8=
EXTT9=
EXTT10=
EXTT11=
EXTT12=
EXTT13=
EXTT14=
EXTT15=
EXTT16=
EXTT17=
EXTT18=
EXTT19=
PLAYORDER=
